<svg version="1.1" id="Layer_1" xmlns="http://www.w3.org/2000/svg" xmlns:xlink="http://www.w3.org/1999/xlink" x="0px" y="0px"
	 width="100%" viewBox="0 0 1024 1024" enable-background="new 0 0 1024 1024" xml:space="preserve">
<path fill="#000000" opacity="1.000000" stroke="none" 
	d="
M117.582047,589.448059 
	C98.052513,571.621521 87.240692,549.923584 84.514694,523.890259 
	C81.812561,498.084808 87.604881,474.554443 102.541092,453.549866 
	C117.595360,432.379242 138.505463,419.826477 163.876434,414.684692 
	C171.546921,413.130127 179.329285,412.213043 187.176910,412.692200 
	C190.797409,412.913300 193.649490,411.745880 196.136642,409.225281 
	C208.189438,397.010406 220.261566,384.814606 232.344391,372.629425 
	C233.957916,371.002258 234.823730,369.137878 234.759079,366.822845 
	C234.712616,365.158203 234.587753,363.462769 234.825272,361.828613 
	C236.220215,352.230865 233.769943,345.913147 223.864853,341.162231 
	C209.010818,334.037506 208.382965,311.450806 217.726440,301.318359 
	C225.308975,293.095520 233.011276,286.969879 244.528366,287.732178 
	C264.255676,289.037903 279.027740,307.639679 273.208801,327.485504 
	C270.878082,335.434540 264.890961,340.732544 258.169312,344.874786 
	C254.338257,347.235748 253.034195,349.874786 253.258728,354.175537 
	C253.579758,360.324921 253.114594,366.514740 253.417023,372.666046 
	C253.642395,377.249786 251.979416,380.534637 248.691727,383.605530 
	C238.709900,392.929077 228.924866,402.463623 219.088135,411.941864 
	C217.663132,413.314941 216.374710,414.829773 215.142426,416.151062 
	C215.614304,418.291504 217.271484,418.566986 218.572220,419.101807 
	C227.874390,422.926422 236.605072,427.711365 244.300186,434.245361 
	C246.730545,436.309113 248.962433,437.313629 251.577850,434.430481 
	C267.925629,416.409180 286.468384,400.507629 302.282837,381.966064 
	C304.080902,379.857941 305.063324,377.959259 304.427307,374.818329 
	C299.606049,351.008301 306.838287,339.121918 326.682861,332.913208 
	C341.329773,328.330688 361.522552,342.110748 363.322845,357.819458 
	C365.734497,378.862183 347.089294,396.716461 325.978424,393.511841 
	C321.732666,392.867310 318.306854,393.756866 315.108795,396.904999 
	C302.627869,409.190979 291.136841,422.389465 279.257965,435.230530 
	C274.735809,440.118988 270.120880,444.921753 265.537048,449.752991 
	C262.732544,452.708862 262.689636,455.595215 265.685181,458.444977 
	C266.046967,458.789124 266.387604,459.157043 266.720947,459.529266 
	C273.327301,466.906555 273.600647,467.176910 280.835449,459.837433 
	C290.185577,450.352020 299.117371,440.448425 308.068878,430.579346 
	C310.764435,427.607483 313.657745,425.379974 317.726288,425.048462 
	C323.195282,424.602814 328.665649,424.154236 334.143097,423.840820 
	C336.845978,423.686188 338.920227,425.086090 340.538910,427.163422 
	C341.988983,429.024445 342.877228,431.150024 343.618164,433.390533 
	C346.669495,442.617432 346.338165,443.442963 336.607971,443.301086 
	C325.958374,443.145844 317.217102,446.412598 310.632416,455.051636 
	C302.091125,466.257721 291.212311,475.134918 280.689362,484.318970 
	C276.731384,487.773285 275.169556,491.352875 275.159637,496.753571 
	C275.110413,523.558350 273.171387,550.326843 273.257538,577.145142 
	C273.287476,586.465454 273.604614,595.710449 275.080536,604.971619 
	C276.195709,611.968994 275.923218,615.360962 266.539581,613.780579 
	C258.226349,612.380493 249.607574,613.518921 241.140121,612.454651 
	C235.762085,611.778625 234.242264,610.743591 233.805847,605.166260 
	C233.572556,602.184753 233.493164,599.191345 233.299118,596.206299 
	C233.281128,595.929565 232.935623,595.674072 232.719513,595.377686 
	C231.175049,594.607056 230.211624,595.841919 229.227188,596.581238 
	C197.362320,620.510803 151.186050,616.544617 120.573174,591.877014 
	C119.665443,591.145569 118.759811,590.411560 117.582047,589.448059 
M230.625671,520.165771 
	C232.202805,514.398682 231.425629,508.642975 230.684326,502.852142 
	C229.047607,490.066650 224.223633,478.718903 215.061630,469.596222 
	C204.894028,459.472168 192.153000,458.938141 178.777634,460.298431 
	C160.314224,462.176300 140.282639,478.028473 136.914963,495.182129 
	C135.044998,504.706970 133.794250,514.387756 135.168045,524.363464 
	C138.260651,546.820435 152.062698,562.603455 174.324677,565.160461 
	C192.643066,567.264465 209.004196,562.275024 219.910858,545.599365 
	C224.895523,537.978088 228.604904,529.901062 230.625671,520.165771 
M244.963455,328.544189 
	C250.191223,327.464661 255.204025,326.104309 255.767990,319.488007 
	C256.362030,312.519196 251.300446,306.546295 244.597748,306.249878 
	C237.367966,305.930176 231.770157,311.010590 231.430588,318.200073 
	C231.114609,324.890381 235.727097,328.669434 244.963455,328.544189 
M343.706268,357.050171 
	C337.246765,348.571716 326.599823,349.669128 322.236206,359.263153 
	C319.393982,365.512207 325.197754,374.679413 331.982605,374.657745 
	C340.678772,374.630035 346.039215,367.125305 343.706268,357.050171 
z"/>
<path fill="#000000" opacity="1.000000" stroke="none" 
	d="
M908.915161,614.360168 
	C899.927612,614.362793 891.422546,614.170532 882.932983,614.449158 
	C878.678772,614.588867 877.561829,612.979004 877.584717,608.949768 
	C877.722778,584.621155 877.580383,560.290833 877.702637,535.962036 
	C877.727112,531.092285 877.256042,526.294617 876.311035,521.595398 
	C873.244446,506.346161 858.807800,498.375946 842.644714,500.744446 
	C826.700562,503.080872 819.931885,515.031616 819.508301,531.603455 
	C818.861389,556.916077 819.293335,582.256104 819.257141,607.584534 
	C819.247498,614.316284 819.230713,614.338745 812.732361,614.354553 
	C803.567200,614.376892 794.395264,614.155273 785.239624,614.452271 
	C780.821838,614.595642 779.549805,613.128784 779.565125,608.756226 
	C779.708435,567.763184 779.664368,526.769470 779.643860,485.775940 
	C779.631348,460.780670 779.563782,435.785370 779.535767,410.790100 
	C779.535217,410.321777 779.719360,409.853271 779.969299,408.658722 
	C786.829102,408.658722 793.771301,408.659149 800.713440,408.658539 
	C805.046082,408.658173 809.394714,408.887756 813.707031,408.591125 
	C818.203003,408.281860 819.389526,410.184692 819.353516,414.438354 
	C819.181458,434.767029 819.250610,455.097961 819.301636,475.427917 
	C819.306396,477.323090 818.618469,479.418579 820.151245,481.102264 
	C821.989807,481.126526 822.815979,479.704620 823.859070,478.717285 
	C840.556946,462.912109 859.770874,461.093658 880.362000,469.105957 
	C900.404175,476.904663 911.823364,491.587280 914.487000,513.203064 
	C915.882446,524.526917 915.176453,535.819336 915.290466,547.121094 
	C915.495483,567.449158 915.227234,587.781982 915.438599,608.109924 
	C915.486450,612.720276 914.418030,615.161316 908.915161,614.360168 
z"/>
<path fill="#000000" opacity="1.000000" stroke="none" 
	d="
M373.650269,608.132996 
	C373.351837,605.452881 374.377258,603.008728 372.570862,600.918335 
	C369.573669,600.735107 368.314270,603.307800 366.560150,604.843689 
	C346.453369,622.448975 318.218445,623.017334 297.516418,606.105164 
	C288.445801,598.695007 284.016815,589.019714 283.654236,577.393677 
	C283.461853,571.223999 283.570740,565.052063 285.069580,559.039856 
	C287.640686,548.726624 293.994263,541.254272 303.275604,536.371399 
	C313.889191,530.787659 325.323334,528.233093 337.288116,527.583313 
	C347.273712,527.041077 357.255127,526.519897 367.248444,526.825684 
	C371.423218,526.953369 373.103821,524.630615 373.401703,521.172852 
	C374.582001,507.471191 364.482483,496.603943 350.663177,496.336670 
	C345.271851,496.232391 340.009857,496.578918 335.105835,499.077240 
	C329.399109,501.984436 325.331268,506.153168 325.410309,512.982544 
	C325.451965,516.581482 323.452789,517.819580 320.500244,517.874268 
	C311.506287,518.040955 302.505798,518.156433 293.513397,517.991150 
	C288.517120,517.899353 288.416260,514.164368 288.762390,510.422729 
	C290.061737,496.377411 296.037140,484.890320 307.728394,476.781403 
	C331.357971,460.392212 367.825378,458.975098 391.170441,478.535950 
	C403.741028,489.068787 408.968109,502.842621 409.129272,518.632019 
	C409.435364,548.624939 409.188507,578.623169 409.331482,608.618408 
	C409.351837,612.885376 408.058258,614.603516 403.606201,614.449524 
	C395.616943,614.173157 387.604248,614.177734 379.614929,614.455444 
	C375.166962,614.610107 372.923706,613.311340 373.650269,608.132996 
M363.484467,579.006042 
	C369.763123,573.503906 373.730957,566.887451 373.647980,558.251343 
	C373.619720,555.309753 372.547607,553.646667 369.366058,553.306213 
	C364.240326,552.757629 359.113983,551.916687 353.970428,552.452515 
	C344.973450,553.389893 335.549835,552.367920 327.477631,557.894836 
	C322.060699,561.603638 317.962097,566.303223 319.568329,573.235413 
	C321.124115,579.949646 326.236694,583.969727 332.759155,585.500793 
	C343.629669,588.052429 353.856476,586.358032 363.484467,579.006042 
z"/>
<path fill="#000000" opacity="1.000000" stroke="none" 
	d="
M559.159668,611.716919 
	C558.235840,614.799683 555.995850,614.321838 554.076782,614.333008 
	C545.245178,614.384460 536.406921,614.166870 527.584045,614.451294 
	C523.060608,614.597168 521.524292,613.166443 521.559998,608.513733 
	C521.754456,583.186157 521.589355,557.856140 521.666931,532.527283 
	C521.750427,505.251129 498.459259,496.488953 480.202240,501.814331 
	C471.889221,504.239136 466.556488,509.953491 464.445404,518.382812 
	C463.113129,523.702454 462.323639,529.119568 462.333282,534.652649 
	C462.375671,558.981750 462.345947,583.311035 462.324158,607.640259 
	C462.318146,614.362915 462.289368,614.365234 455.800720,614.371338 
	C447.135529,614.379517 438.469055,614.300598 429.805817,614.433167 
	C426.618988,614.481812 425.471985,613.435364 425.481628,610.096680 
	C425.612885,564.605042 425.669678,519.112976 425.567871,473.621399 
	C425.558014,469.215332 426.929016,467.777557 431.295288,467.937714 
	C439.450012,468.236755 447.622559,468.065491 455.787689,468.059235 
	C459.577850,468.056305 461.788757,469.409790 461.396759,473.690918 
	C461.138947,476.506165 461.917236,479.237732 462.783417,481.837433 
	C464.455597,482.205292 464.995117,480.927795 465.772491,480.183228 
	C482.528290,464.134277 502.255219,460.901123 523.564697,468.096680 
	C543.754089,474.914032 553.554504,490.783966 557.332336,510.946259 
	C558.929626,519.470703 559.392883,528.081177 559.343872,536.760803 
	C559.203613,561.588806 559.253967,586.417969 559.159668,611.716919 
z"/>
<path fill="#000000" opacity="1.000000" stroke="none" 
	d="
M711.731445,525.924988 
	C721.947449,527.891052 731.690247,529.793091 740.740967,534.369507 
	C764.529358,546.397949 768.128540,570.205444 757.255493,590.763611 
	C748.073547,608.124329 732.549988,615.900085 713.581482,618.434875 
	C699.382141,620.332397 685.680115,618.713074 672.308655,614.204834 
	C652.595764,607.558411 640.774536,593.941650 637.357056,573.212524 
	C636.739624,569.467590 638.115662,567.750610 641.701660,567.726562 
	C650.696472,567.666199 659.692017,567.733887 668.687134,567.700745 
	C671.603088,567.690002 673.476929,569.016296 674.147095,571.811157 
	C676.337219,580.944214 682.829346,585.510132 691.404724,586.962646 
	C701.845459,588.730957 712.081665,588.057007 720.393311,580.214478 
	C726.800964,574.168457 726.171936,567.160095 718.852966,562.271057 
	C712.700012,558.160828 705.553772,557.297974 698.461609,556.347351 
	C686.278259,554.714233 674.082947,553.190918 662.660034,548.178345 
	C643.340027,539.700317 633.923767,522.695557 637.745789,502.248169 
	C640.244507,488.880127 648.354919,479.163330 660.182678,473.246979 
	C685.376221,460.644897 710.984070,461.469666 736.054443,473.627228 
	C750.683838,480.721619 757.178040,494.225739 760.935547,509.273926 
	C761.631348,512.060425 760.144043,513.516052 757.546082,513.523926 
	C747.564026,513.554321 737.581543,513.409546 727.599060,513.374939 
	C725.205383,513.366577 723.954041,512.063477 723.269043,509.971619 
	C718.929443,496.718933 695.584045,490.671906 682.323364,499.846313 
	C673.852478,505.706909 674.399963,515.130615 683.730774,519.596924 
	C692.382812,523.738281 702.009705,524.205078 711.731445,525.924988 
z"/>
<path fill="#000000" opacity="1.000000" stroke="none" 
	d="
M581.650635,551.999878 
	C581.649475,525.837402 581.762146,500.173920 581.547607,474.513184 
	C581.506653,469.617981 582.660217,467.622528 587.918213,467.899780 
	C595.894775,468.320374 603.918030,468.234314 611.905334,467.933380 
	C617.008789,467.741119 618.105103,470.274506 618.084717,474.625092 
	C617.999695,492.788300 618.050903,510.952209 618.050293,529.115845 
	C618.049377,555.611389 617.970093,582.107422 618.122559,608.602112 
	C618.147217,612.884827 616.930725,614.596252 612.462769,614.454834 
	C603.972656,614.186035 595.462036,614.188843 586.971863,614.456116 
	C582.767334,614.588501 581.546875,613.065857 581.582336,608.990356 
	C581.746277,590.161438 581.652344,571.330261 581.650635,551.999878 
z"/>
<path fill="#000000" opacity="1.000000" stroke="none" 
	d="
M583.893066,446.218140 
	C575.738403,438.112274 574.221191,425.474670 580.176331,417.368835 
	C586.765381,408.400177 600.113770,405.603729 610.295471,411.058929 
	C619.592041,416.039886 623.844238,427.417145 620.242249,437.672974 
	C616.029602,449.667755 600.474426,455.066498 587.967102,448.837616 
	C586.637512,448.175415 585.435974,447.256165 583.893066,446.218140 
z"/>
</svg>